<svg width="102" height="113" viewBox="0 0 102 113" fill="none" xmlns="http://www.w3.org/2000/svg">
<path d="M32.1369 48.9042H20.959V60.083H32.1369V48.9042Z" fill="#02CEFB"/>
<path d="M81.0412 48.9042H69.8633V60.083H81.0412V48.9042Z" fill="#02CEFB"/>
<path d="M64.7395 48.9042H53.5615V60.083H64.7395V48.9042Z" fill="#02CEFB"/>
<path d="M32.1369 66.3699H20.959V77.5488H32.1369V66.3699Z" fill="#02CEFB"/>
<path d="M64.7395 66.3699H53.5615V77.5488H64.7395V66.3699Z" fill="#02CEFB"/>
<path d="M48.4387 66.3699H37.2607V77.5488H48.4387V66.3699Z" fill="#02CEFB"/>
<path d="M81.0412 83.8357H69.8633V95.0145H81.0412V83.8357Z" fill="#02CEFB"/>
<path d="M64.7395 83.8357H53.5615V95.0145H64.7395V83.8357Z" fill="#02CEFB"/>
<path d="M48.4387 83.8357H37.2607V95.0145H48.4387V83.8357Z" fill="#02CEFB"/>
<path d="M91.2638 12.093H82.174V20.808C82.174 24.0598 79.4949 26.7044 76.2022 26.7044H64.3335C61.0409 26.7044 58.362 24.0598 58.362 20.808V12.093H43.6222V20.7261C43.6222 24.0231 40.9137 26.7044 37.5843 26.7044H25.8477C22.5183 26.7044 19.8097 24.0231 19.8097 20.7261V12.093H10.7199C4.80898 12.093 0 16.8584 0 22.7158V101.858C0 107.715 4.80898 112.48 10.7199 112.48H91.2638C97.1838 112.48 102 107.715 102 101.858V22.7158C102 16.8587 97.1838 12.093 91.2638 12.093ZM94.3153 101.651C94.3153 103.532 93.0519 104.795 91.1713 104.795H10.8287C8.94813 104.795 7.6847 103.532 7.6847 101.651V39.1241H94.3153V101.651Z" fill="#02CEFB"/>
<path d="M25.8507 22.5196H37.5803C38.5735 22.5196 39.3815 21.7171 39.3815 20.7305V4.50207C39.3815 2.0196 37.345 0 34.8415 0H28.5893C26.086 0 24.0488 2.01938 24.0488 4.50207V20.7305C24.049 21.7171 24.8571 22.5196 25.8507 22.5196Z" fill="#02CEFB"/>
<path d="M64.3341 22.5196H76.2028C77.158 22.5196 77.9348 21.7478 77.9348 20.8003V4.43287C77.9348 1.98884 75.9295 0 73.4639 0H67.073C64.6079 0 62.6025 1.98884 62.6025 4.43287V20.8003C62.6023 21.7478 63.3794 22.5196 64.3341 22.5196Z" fill="#02CEFB"/>
</svg>
