<svg width="115" height="115" viewBox="0 0 115 115" fill="none" xmlns="http://www.w3.org/2000/svg">
<path d="M57.5 0C28.3475 0 4.27836 21.7009 0.524687 49.8255C0.521094 49.8543 0.5175 49.8812 0.513906 49.91C0.413281 50.6665 0.323438 51.4248 0.251563 52.1902C0.217422 52.5442 0.199453 52.9018 0.170703 53.2576C0.132969 53.7607 0.0916406 54.2638 0.0664844 54.7705C0.0251563 55.6726 0 56.5836 0 57.5C0 89.2562 25.7438 115 57.5 115C89.2562 115 115 89.2562 115 57.5C115 25.7438 89.2562 0 57.5 0ZM59.9473 105.121C58.6536 106.535 56.5315 107.662 55.1407 106.325C53.9673 105.168 54.9628 103.737 55.1407 102.097C55.3653 100.183 54.4902 97.883 56.3374 97.2882C57.8414 96.8228 58.9752 97.8668 59.9473 99.1066C61.4298 100.939 61.5232 103.367 59.9473 105.121ZM78.067 89.6102C75.9467 90.7027 74.4625 90.4978 72.096 90.8195C67.6865 91.3747 64.2005 93.5507 60.7164 90.8195C59.1585 89.5706 58.9591 88.2122 57.7516 86.613C55.8037 84.162 55.3168 79.6429 52.343 80.6438C50.4419 81.2834 50.4994 83.1863 49.3709 84.8395C47.9155 86.9166 48.2802 89.8581 45.7682 90.2175C44.018 90.4655 43.0747 89.3945 41.5977 88.4206C39.9409 87.3173 39.6139 85.9984 38.0003 84.8395C36.322 83.6014 34.9636 83.5942 33.2314 82.4424C31.9844 81.6105 31.7184 80.0993 30.2252 80.0454C28.8758 80.0059 27.9091 80.6671 27.2352 81.8351C25.9756 84.0165 25.5426 90.4475 21.8662 90.2175C19.1421 90.0324 13.3166 83.9123 11.0957 82.4424C10.368 81.9519 9.69414 81.4523 9.01492 81.0714C5.72844 74.3223 3.82016 66.7827 3.62969 58.8171C4.73297 57.8917 5.85602 57.4353 6.8982 56.1344C8.56391 54.1039 7.7625 51.6296 9.90438 50.1418C11.4964 49.0565 12.783 49.2308 14.7002 48.9595C17.4477 48.5605 19.1762 48.2012 21.8662 48.9595C24.4878 49.6944 25.4887 51.1984 27.8426 52.5388C30.3852 53.9943 31.5298 55.7121 34.4191 56.1344C36.5143 56.4309 37.9518 54.5154 39.7882 55.5288C41.2688 56.3518 42.3146 57.4443 42.1978 59.1244C42.0181 61.313 37.6661 59.9222 37.4199 62.1108C37.0911 64.9103 41.9337 61.7622 44.593 62.7038C46.3432 63.3416 48.6198 63.232 48.7708 65.1008C48.9163 67.178 45.8814 66.6048 43.9965 67.4996C41.9085 68.4717 40.8142 69.2893 38.5987 69.8877C36.5772 70.4231 34.4443 68.7592 33.2314 70.4788C32.2791 71.8121 32.6151 73.1544 33.2314 74.6745C34.6455 78.1443 39.2491 77.1039 42.7944 75.8551C45.2795 74.9782 45.743 72.7537 48.1796 71.6702C50.7635 70.5184 52.7688 69.2713 55.333 70.4788C57.4497 71.4779 56.8585 74.1624 58.9375 75.2639C61.189 76.4642 63.3075 73.954 65.5195 75.2639C67.2391 76.2863 67.1133 77.997 68.4933 79.4452C70.0997 81.1379 71.0269 82.5035 73.2873 83.039C75.5981 83.5762 77.0105 81.1145 79.2655 81.8333C80.9995 82.3993 82.4191 83.0552 82.8359 84.8377C83.4918 87.3892 80.3994 88.4027 78.067 89.6102ZM82.367 60.808C80.2934 62.8924 78.4929 63.5734 75.5909 64.2095C73.016 64.7756 69.4043 66.7934 68.8131 64.2095C68.3621 62.1467 70.6621 61.41 72.2146 59.9707C73.9378 58.3625 75.546 58.2044 77.2926 56.571C78.8559 55.1299 78.651 52.9216 80.6941 52.3322C82.6868 51.7572 84.6149 52.298 85.7702 54.0338C87.4216 56.4902 84.4639 58.7237 82.367 60.808ZM107.793 52.6826C106.909 53.5954 106.963 54.5585 106.059 55.4534C105.058 56.4219 103.667 56.005 102.936 57.1927C102.293 58.2295 102.702 59.092 102.587 60.3103C102.514 61.0057 99.13 62.5672 98.431 61.0021C98.0465 60.1378 98.9359 59.3723 98.431 58.5709C97.9584 57.8504 97.4338 58.2205 96.8156 58.8962C96.1705 59.5934 95.4284 60.6176 94.6216 61.0021C93.5633 61.4927 94.2694 56.9591 93.9119 55.4534C93.6495 54.262 93.9298 53.5127 94.2677 52.334C94.7169 50.6988 95.9531 50.167 96.343 48.5156C96.6916 47.0673 96.4023 46.1887 96.343 44.7009C96.273 43.0729 96.3161 42.1367 96.0052 40.5429C95.6602 38.8592 95.5524 37.8027 94.6198 36.3813C93.8688 35.2601 93.3728 34.5827 92.1869 33.952C91.8994 33.7938 91.6298 33.6896 91.3747 33.6087C90.7637 33.4057 90.1905 33.3787 89.4017 33.262C87.8061 33.0248 86.6669 34.0382 85.2437 33.262C84.4136 32.8037 84.1548 32.2288 83.5187 31.5244C82.7928 30.7445 82.6005 30.1066 81.7812 29.4436C81.1684 28.9477 80.7893 28.6584 80.0472 28.3996C78.6277 27.927 77.6358 28.2523 76.227 28.7518C74.8434 29.2334 74.3259 30.0222 73.1023 30.8272C72.1643 31.3716 71.4977 31.4938 70.6801 32.218C70.1841 32.6528 67.823 34.3329 66.8581 34.2934C65.8806 34.2556 65.329 33.677 64.4539 33.607C64.3371 33.5926 64.2203 33.5926 64.0873 33.607C64.0873 33.607 64.0873 33.607 64.0784 33.607C63.2284 33.6716 62.8277 34.0903 62.0191 34.2934C60.03 34.7893 58.7632 34.0867 56.7992 34.6473C55.5198 35.0067 55.0149 36.0238 53.6906 36.0327C52.1795 36.0417 51.6691 34.6977 50.2191 34.2934C49.4248 34.0813 48.9577 34.0616 48.1401 33.952C46.7942 33.7579 46.0234 33.7381 44.6793 33.6087H44.6703C44.6416 33.6195 43.6084 33.713 43.4341 33.6087C42.6758 33.0948 42.1367 32.6726 41.1987 32.2198C40.1655 31.7112 39.5474 31.4507 38.419 31.1704L38.4657 30.4858C38.4657 30.4858 38.4657 28.9638 38.2483 28.317C38.0416 27.6683 37.817 27.6683 38.2483 26.3655C38.6939 25.0682 39.4684 24.2416 39.4684 24.2416C40.002 23.832 40.3955 23.6936 40.8502 23.1995C41.7666 22.2309 42.1385 21.4062 42.2409 20.0747C42.3613 18.3281 40.0757 17.6184 40.498 15.9131C40.8735 14.4289 42.1223 14.1522 43.2777 13.1405C44.6775 11.9366 45.9155 11.7785 47.0871 10.3698C47.9873 9.30422 48.7241 8.63578 48.8301 7.2468C48.9253 6.06625 48.4168 5.32773 47.8059 4.4832C50.9522 3.9082 54.1884 3.59375 57.5 3.59375C84.3076 3.59375 106.537 23.1671 110.696 48.7995C110.332 49.432 110.695 50.2298 110.211 50.9432C109.572 51.9189 108.596 51.8398 107.793 52.6826Z" fill="#02CEFB"/>
</svg>
